<svg xmlns="http://www.w3.org/2000/svg" width="600" height="341.016" viewBox="0 0 600 341.016"><path d="M179.467 250.927H69.146v-104.1s0 .02.02.08c.02.04.04.121.08.221 1.967 6.061 34.94 103.8 110.221 103.8z" fill="#df021c"/><path d="M355.412 243.355l-1.791-.903c.15-.3 3.782-7.443 10.597-15.125 6.323-7.127 16.663-16.008 30.024-17.846 15.77-2.171 32.142 5.728 48.668 23.471 2.048-3.194 8.433-11.74 18.905-13.177 9.006-1.235 18.58 3.13 28.49 12.984 3.93-10.934 30.085-75.575 101.292-84.594l.251 1.991c-76.128 9.643-99.93 84.006-100.16 84.757l-.5 1.62-1.18-1.218c-9.848-10.183-19.246-14.74-27.92-13.552-11.652 1.6-18.061 13.215-18.126 13.331l-.67 1.242-.953-1.043c-16.363-17.92-32.456-25.927-47.823-23.823-24.471 3.364-38.96 31.6-39.104 31.885z" fill="#7c9b9d"/><path d="M349.856 259.998l7.245-2.067c4.014-8.128 8.208-14.65 12.483-19.808-12.604 8.87-19.728 21.875-19.728 21.875zM493.31 242.9s-26.41-23.822-48.668 0c0 0-40.56-46.3-75.06-4.776 15.414-10.858 39.016-15.554 67.795 17.22 0 0 23.822-31.61 48.167 0l11.92-8.811s13.467-68.176 92.18-75.521v-8.91s-66.812 8.288-96.334 80.798z" fill="#a9d9e3"/><path d="M179.467 250.927s61.372 2.328 83.89-114.977C285.895 18.644 288.223 0 288.223 0l-41.945 138.278S218.3 231.5 160.04 231.5c-56.255 0-88.606-78.933-90.794-84.372 1.967 6.061 34.94 103.8 110.221 103.8zM520.686 40.661C406.692 54.769 334.322 178.156 334.322 178.156 305.322 134.144 291.855 0 291.855 0c-10.356 179.2 52.301 250.927 52.301 250.927C387.145 112.89 486.588 61.111 538.387 44.534c3.412-1.084 6.623-1.907 9.674-2.449a77.901 77.901 0 0 0-27.375-1.424zm27.375 1.424A76.19 76.19 0 0 1 560.303 46c13.426 5.58 30.365 14.932 39.697 29.1 0 0-8.59-41.142-51.94-33.014zM92.392 285.502h-2.634a3.878 3.878 0 0 0-3.879 3.879v35.76a5.84 5.84 0 0 1-5.84 5.84h-12.15A3.018 3.018 0 0 0 64.871 334v3.598a3.418 3.418 0 0 0 3.418 3.418h11.75c8.767 0 15.875-7.107 15.875-15.875v-36.117a3.521 3.521 0 0 0-3.522-3.522zm55.265-5.013H119.6c-11.137 0-20.25 9.113-20.25 20.25v10.055c0 11.137 9.113 20.25 20.25 20.25h9.843a4.186 4.186 0 0 0 4.186-4.186v-1.777a4.072 4.072 0 0 0-4.073-4.072H119.6c-5.642 0-10.215-4.573-10.215-10.215v-.02h54.85a3.673 3.673 0 0 0 3.672-3.673v-6.362c0-11.137-9.113-20.25-20.25-20.25zm-38.272 20.25c0-5.64 4.576-10.215 10.215-10.215h28.057c5.64 0 10.215 4.576 10.215 10.215h-48.487zm113.371-20.25h-10.14a3.889 3.889 0 0 0-3.888 3.89v2.12a4.025 4.025 0 0 0 4.025 4.025h10.004a10.16 10.16 0 0 1 9.231 5.88 17.831 17.831 0 0 0-7.004-1.425h-34.72c-10.334 0-18.67 8.752-17.982 19.253.627 9.576 9.013 16.812 18.61 16.812h34.092c9.954 0 18.022-8.069 18.022-18.022v-12.283c0-11.137-9.112-20.25-20.25-20.25zm1.875 40.52h-34.014c-4.172 0-7.903-3.046-8.302-7.2-.459-4.767 3.295-8.795 7.95-8.795h34.72c4.653 0 8.407 4.028 7.949 8.796-.4 4.153-4.13 7.2-8.303 7.2zm299.235-40.52h-10.25a3.707 3.707 0 0 0-3.707 3.707v2.523a3.805 3.805 0 0 0 3.804 3.805h10.224c4.026 0 7.509 2.329 9.15 5.707.03.06-.032.124-.093.1a17.698 17.698 0 0 0-6.83-1.352h-33.992c-9.63 0-18.09 7.241-18.71 16.852-.678 10.47 7.654 19.213 18.003 19.213h34.629c9.992 0 18.093-8.1 18.093-18.094v-12.14c0-11.223-9.098-20.32-20.321-20.32zm2.299 40.52h-34.306c-4.208 0-7.997-3.068-8.37-7.26-.42-4.74 3.32-8.735 7.976-8.735h34.255c4.204 0 8 3.049 8.396 7.234.449 4.74-3.28 8.761-7.951 8.761zm-227.796-39.416h-30.006c-9.714 0-17.59 7.875-17.59 17.59v28.42a3.541 3.541 0 0 0 3.542 3.541h2.952a3.541 3.541 0 0 0 3.541-3.541v-28.42c0-4.156 3.4-7.555 7.555-7.555h30.006c4.155 0 7.555 3.4 7.555 7.555v28.42a3.541 3.541 0 0 0 3.541 3.541h2.952a3.541 3.541 0 0 0 3.542-3.541v-28.42c0-9.715-7.876-17.59-17.59-17.59zm122.98 1.998a2.06 2.06 0 0 0-2.906.236l-27.631 32.551a2.06 2.06 0 0 1-3.15-.01l-27.269-32.512a2.06 2.06 0 0 0-2.904-.253l-4.533 3.81a2.06 2.06 0 0 0-.252 2.901l32.674 38.944a5.024 5.024 0 0 0 7.667.02l33.047-38.951a2.06 2.06 0 0 0-.236-2.902l-4.508-3.834zm21.822-.232h-4.963a2.536 2.536 0 0 0-2.536 2.536v42.713c0 1.4 1.136 2.536 2.536 2.536h4.963c1.4 0 2.536-1.135 2.536-2.536v-42.713c0-1.4-1.136-2.536-2.536-2.536zm-2.486-13.103c-4.076 0-7.38 2.304-7.38 5.147 0 2.842 3.304 5.147 7.38 5.147 4.076 0 7.38-2.305 7.38-5.147 0-2.843-3.304-5.147-7.38-5.147zm-349.788 0c-4.076 0-7.38 2.304-7.38 5.147 0 2.842 3.304 5.147 7.38 5.147 4.076 0 7.38-2.305 7.38-5.147 0-2.843-3.304-5.147-7.38-5.147zm371.552-.002h-5.066a2.485 2.485 0 0 0-2.484 2.485v55.92a2.485 2.485 0 0 0 2.484 2.485h5.066a2.485 2.485 0 0 0 2.484-2.485v-55.92a2.485 2.485 0 0 0-2.484-2.485zm114.007 11.339h-11.999c-8.429 0-15.293 6.864-15.293 15.313v30.884a3.354 3.354 0 0 0 3.355 3.354h3.326a3.354 3.354 0 0 0 3.354-3.354v-30.47a5.693 5.693 0 0 1 5.693-5.692h11.564a3.354 3.354 0 0 0 3.354-3.355v-3.326a3.354 3.354 0 0 0-3.354-3.354z" fill="#121015"/><path d="M47.932 286.791a11.04 11.04 0 0 0-4.314-.863H15.56a2.278 2.278 0 0 0-2.268 2.268v1.866c0 .883.502 1.646 1.224 2.007.301.16.662.261 1.044.261h18.102c2.63 0 4.797 2.168 4.797 4.817v19.106c0 2.649-2.168 4.816-4.797 4.816H15.561c-1.245 0-2.268 1.004-2.268 2.248v1.887c0 1.244 1.023 2.248 2.268 2.248h18.102c6.182 0 11.199-5.018 11.199-11.2v-19.105c0-1.726-.381-3.352-1.084-4.817 2.569.1 4.636 2.228 4.636 4.817v18.102c0 1.245 1.024 2.248 2.268 2.248h1.886a2.244 2.244 0 0 0 2.248-2.248v-18.102c0-4.676-2.85-8.67-6.884-10.356zm-4.469 46.004H7.058c-.893 0-1.618.724-1.618 1.617v3.298c0 .893.725 1.618 1.618 1.618h36.405c.893 0 1.618-.725 1.618-1.618v-3.298c0-.893-.725-1.617-1.618-1.617zm-20.798-52.547h14.61a8.565 8.565 0 0 0 8.57-8.57v-32.351c0-.963-.782-1.726-1.726-1.726h-1.445c-.943 0-1.726.763-1.726 1.726v32.352a3.674 3.674 0 0 1-3.672 3.672h-14.61a3.674 3.674 0 0 1-3.674-3.672v-32.352c0-.963-.782-1.726-1.725-1.726H15.82c-.943 0-1.725.763-1.725 1.726v32.352a8.565 8.565 0 0 0 8.57 8.57zm4.148-45.273h6.315c6.994 0 12.717-5.723 12.717-12.717v-6.182a2.629 2.629 0 0 0-2.629-2.628h-1.115a2.557 2.557 0 0 0-2.558 2.557v6.253a6.416 6.416 0 0 1-6.415 6.415h-.013v-34.447a2.307 2.307 0 0 0-2.306-2.306h-3.996c-6.995 0-12.717 5.723-12.717 12.717v17.62c0 6.995 5.722 12.718 12.717 12.718zm-6.415-30.338a6.417 6.417 0 0 1 6.415-6.415v30.451a6.417 6.417 0 0 1-6.415-6.415v-17.62zm6.415-15.343h6.315c6.994 0 12.717-5.723 12.717-12.717v-6.182a2.629 2.629 0 0 0-2.629-2.629h-1.115a2.557 2.557 0 0 0-2.558 2.558v6.253a6.416 6.416 0 0 1-6.415 6.415h-.013v-34.447a2.307 2.307 0 0 0-2.306-2.307h-3.996c-6.995 0-12.717 5.723-12.717 12.718v17.62c0 6.995 5.722 12.718 12.717 12.718zm-6.415-30.338a6.417 6.417 0 0 1 6.415-6.416v30.452a6.417 6.417 0 0 1-6.415-6.415v-17.621zM9.62 215.167l1.546-1.497a1.935 1.935 0 0 0 .043-2.736l-6.338-6.544a1.935 1.935 0 0 0-2.737-.043L.59 205.844a1.935 1.935 0 0 0-.044 2.737l6.339 6.543a1.935 1.935 0 0 0 2.736.043z" fill="#7c7c7c"/></svg>